<svg xmlns="http://www.w3.org/2000/svg" xmlns:xlink="http://www.w3.org/1999/xlink" width="1085" height="524" viewBox="0 0 1085 524"><defs><style>.a{fill:#fff;}.b{opacity:0.05;clip-path:url(#a);}</style><clipPath id="a"><rect class="a" width="1085" height="524" transform="translate(3173 4566)"/></clipPath></defs><g class="b" transform="translate(-3173 -4566)"><path d="M0,0H38V38H0Z" transform="translate(3498.75 5028.81) rotate(-25)"/><path d="M0,0H60V60H0Z" transform="translate(3788.574 4970) rotate(-45)"/><path d="M0,0H37V37H0Z" transform="translate(4021.867 4637.599) rotate(-71)"/><path d="M0,0H147V147H0Z" transform="translate(3080.574 5028) rotate(-45)"/><path d="M67.5,135A67.518,67.518,0,0,1,41.226,5.3,67.517,67.517,0,0,1,93.774,129.7,67.076,67.076,0,0,1,67.5,135Zm0-114.666A47.166,47.166,0,1,0,114.666,67.5,47.22,47.22,0,0,0,67.5,20.334Z" transform="translate(4157 4681)"/><path d="M35.5,71A35.509,35.509,0,0,1,21.682,2.79,35.509,35.509,0,0,1,49.318,68.21,35.277,35.277,0,0,1,35.5,71Zm0-60.306A24.806,24.806,0,1,0,60.306,35.5,24.834,24.834,0,0,0,35.5,10.694Z" transform="translate(4098 5053)"/><path d="M72.822,145.645A72.841,72.841,0,0,1,44.477,5.723a72.841,72.841,0,0,1,56.691,134.2A72.365,72.365,0,0,1,72.822,145.645Zm0-123.708a50.885,50.885,0,1,0,50.885,50.885A50.943,50.943,0,0,0,72.822,21.937Z" transform="translate(3245 4504)"/><path d="M44.5,89A44.512,44.512,0,0,1,27.179,3.5,44.511,44.511,0,0,1,61.821,85.5,44.22,44.22,0,0,1,44.5,89Zm0-75.595A31.095,31.095,0,1,0,75.595,44.5,31.13,31.13,0,0,0,44.5,13.405Z" transform="translate(3671 4804)"/></g></svg>